<svg xmlns="http://www.w3.org/2000/svg" width="1200" height="630" viewBox="0 0 1200 630">
  <!-- Background -->
  <rect width="1200" height="630" fill="#15151E"/>

  <!-- Red accent bar top -->
  <rect width="1200" height="8" fill="#E10600"/>

  <!-- Red accent bar bottom -->
  <rect y="622" width="1200" height="8" fill="#E10600"/>

  <!-- Subtle checkered pattern on left -->
  <g opacity="0.08">
    <rect x="0" y="0" width="30" height="30" fill="white"/>
    <rect x="30" y="30" width="30" height="30" fill="white"/>
    <rect x="0" y="60" width="30" height="30" fill="white"/>
    <rect x="30" y="90" width="30" height="30" fill="white"/>
    <rect x="0" y="120" width="30" height="30" fill="white"/>
    <rect x="30" y="150" width="30" height="30" fill="white"/>
    <rect x="0" y="180" width="30" height="30" fill="white"/>
    <rect x="30" y="210" width="30" height="30" fill="white"/>
    <rect x="0" y="240" width="30" height="30" fill="white"/>
    <rect x="30" y="270" width="30" height="30" fill="white"/>
    <rect x="0" y="300" width="30" height="30" fill="white"/>
    <rect x="30" y="330" width="30" height="30" fill="white"/>
    <rect x="0" y="360" width="30" height="30" fill="white"/>
    <rect x="30" y="390" width="30" height="30" fill="white"/>
    <rect x="0" y="420" width="30" height="30" fill="white"/>
    <rect x="30" y="450" width="30" height="30" fill="white"/>
    <rect x="0" y="480" width="30" height="30" fill="white"/>
    <rect x="30" y="510" width="30" height="30" fill="white"/>
    <rect x="0" y="540" width="30" height="30" fill="white"/>
    <rect x="30" y="570" width="30" height="30" fill="white"/>
    <rect x="0" y="600" width="30" height="30" fill="white"/>
  </g>

  <!-- Subtle checkered pattern on right -->
  <g opacity="0.08">
    <rect x="1140" y="0" width="30" height="30" fill="white"/>
    <rect x="1170" y="30" width="30" height="30" fill="white"/>
    <rect x="1140" y="60" width="30" height="30" fill="white"/>
    <rect x="1170" y="90" width="30" height="30" fill="white"/>
    <rect x="1140" y="120" width="30" height="30" fill="white"/>
    <rect x="1170" y="150" width="30" height="30" fill="white"/>
    <rect x="1140" y="180" width="30" height="30" fill="white"/>
    <rect x="1170" y="210" width="30" height="30" fill="white"/>
    <rect x="1140" y="240" width="30" height="30" fill="white"/>
    <rect x="1170" y="270" width="30" height="30" fill="white"/>
    <rect x="1140" y="300" width="30" height="30" fill="white"/>
    <rect x="1170" y="330" width="30" height="30" fill="white"/>
    <rect x="1140" y="360" width="30" height="30" fill="white"/>
    <rect x="1170" y="390" width="30" height="30" fill="white"/>
    <rect x="1140" y="420" width="30" height="30" fill="white"/>
    <rect x="1170" y="450" width="30" height="30" fill="white"/>
    <rect x="1140" y="480" width="30" height="30" fill="white"/>
    <rect x="1170" y="510" width="30" height="30" fill="white"/>
    <rect x="1140" y="540" width="30" height="30" fill="white"/>
    <rect x="1170" y="570" width="30" height="30" fill="white"/>
    <rect x="1140" y="600" width="30" height="30" fill="white"/>
  </g>

  <!-- F1 Red badge -->
  <rect x="80" y="180" width="120" height="52" rx="6" fill="#E10600"/>
  <text x="140" y="218" font-family="Arial Black, Arial, sans-serif" font-size="36" font-weight="900" fill="white" text-anchor="middle">F1</text>

  <!-- Main title -->
  <text x="80" y="310" font-family="Arial Black, Arial, sans-serif" font-size="72" font-weight="900" fill="white">Fantasy F1</text>

  <!-- Subtitle -->
  <text x="80" y="375" font-family="Arial, sans-serif" font-size="32" fill="#9CA3AF">Team Builder &amp; Predictor</text>

  <!-- Feature pills -->
  <rect x="80" y="430" width="210" height="44" rx="22" fill="#1F2937"/>
  <text x="185" y="459" font-family="Arial, sans-serif" font-size="20" fill="#9CA3AF" text-anchor="middle">🏎️ Build Teams</text>

  <rect x="308" y="430" width="224" height="44" rx="22" fill="#1F2937"/>
  <text x="420" y="459" font-family="Arial, sans-serif" font-size="20" fill="#9CA3AF" text-anchor="middle">🤖 AI Predictions</text>

  <rect x="550" y="430" width="220" height="44" rx="22" fill="#1F2937"/>
  <text x="660" y="459" font-family="Arial, sans-serif" font-size="20" fill="#9CA3AF" text-anchor="middle">📊 Track Results</text>

  <!-- Divider -->
  <line x1="80" y1="530" x2="1120" y2="530" stroke="#374151" stroke-width="1"/>

  <!-- Bottom tagline -->
  <text x="600" y="580" font-family="Arial, sans-serif" font-size="24" fill="#6B7280" text-anchor="middle">fantasy-f1-hn8mhg.fly.dev</text>
</svg>
